<svg width="263" height="160" viewBox="0 0 263 160" fill="none" xmlns="http://www.w3.org/2000/svg">
<g clip-path="url(#clip0_136_1679)">
<path d="M221.839 15.8662H41.1606L0.622437 159.82H262.378L221.839 15.8662Z" fill="#29A96B"/>
<path d="M45.178 19.9307L10.1428 151.6H252.857L217.822 19.9307H45.178ZM149.885 21.0173C150.059 30.3073 141.958 38.179 131.5 38.179C121.042 38.179 112.941 30.299 113.14 20.9841L149.885 21.0173ZM97.0957 149.485L98.9799 124.535H164.07L165.954 149.485H97.0957ZM167.647 149.485L165.514 122.644H97.5357L95.4025 149.485H71.3319L78.6278 94.4086H184.455L191.751 149.485H167.647ZM114.634 92.7746C115.464 82.9454 122.86 75.4221 131.55 75.4221C140.24 75.4221 147.661 82.9454 148.466 92.7746H114.634ZM250.674 149.485H193.403L185.684 92.7746H149.868C149.038 82.091 140.921 73.9373 131.5 73.9373C122.079 73.9373 114.003 82.091 113.132 92.7746H77.3496L69.6304 149.485H12.359L46.0578 20.9924H111.945C111.679 30.946 120.311 39.4066 131.5 39.4066C142.689 39.4066 151.321 30.946 151.055 20.9924H216.942L250.674 149.485Z" fill="white"/>
<path opacity="0.08" d="M79.4826 46.9464C88.8433 46.9464 96.4316 45.2938 96.4316 43.2552C96.4316 41.2167 88.8433 39.5641 79.4826 39.5641C70.1219 39.5641 62.5336 41.2167 62.5336 43.2552C62.5336 45.2938 70.1219 46.9464 79.4826 46.9464Z" fill="black"/>
<path d="M87.4507 -0.515698H71.5061C68.6881 -0.517793 65.96 0.475183 63.8035 2.2879L53.2954 11.0969L62.0106 21.3076L67.1484 17.1603V43.106H91.8083V17.1603L96.9462 21.3076L105.661 11.0969L95.1533 2.2879C92.9968 0.475183 90.2687 -0.517793 87.4507 -0.515698Z" fill="#FDD311"/>
<path opacity="0.08" d="M86.9528 -0.515701C86.9528 1.33401 83.5414 2.80217 79.3332 2.80217C75.125 2.80217 71.7053 1.29254 71.7053 -0.515701" fill="black"/>
<path opacity="0.46" d="M91.8168 22.1121H67.1486V31.3192H91.8168V22.1121Z" fill="white"/>
<path opacity="0.08" d="M183.517 46.9464C192.878 46.9464 200.466 45.2938 200.466 43.2552C200.466 41.2167 192.878 39.5641 183.517 39.5641C174.157 39.5641 166.568 41.2167 166.568 43.2552C166.568 45.2938 174.157 46.9464 183.517 46.9464Z" fill="black"/>
<path d="M191.494 -0.515698H175.549C172.731 -0.517793 170.003 0.475183 167.847 2.2879L157.339 11.0969L166.054 21.3076L171.192 17.1603V43.106H195.852V17.1603L200.989 21.3076L209.705 11.0969L199.197 2.2879C197.04 0.475183 194.312 -0.517793 191.494 -0.515698Z" fill="#FDD311"/>
<path opacity="0.08" d="M190.996 -0.515701C190.996 1.33401 187.584 2.80217 183.368 2.80217C179.151 2.80217 175.748 1.29254 175.748 -0.515701" fill="black"/>
<path opacity="0.46" d="M195.86 22.1121H171.192V31.3192H195.86V22.1121Z" fill="white"/>
<path opacity="0.08" d="M131.5 90.7257C140.861 90.7257 148.449 89.0732 148.449 87.0346C148.449 84.996 140.861 83.3435 131.5 83.3435C122.139 83.3435 114.551 84.996 114.551 87.0346C114.551 89.0732 122.139 90.7257 131.5 90.7257Z" fill="black"/>
<path d="M139.468 43.2553H123.532C120.712 43.2555 117.982 44.248 115.821 46.0589L105.321 54.8678L114.07 65.0869L119.207 60.9395V86.8853H143.876V60.9395L149.013 65.0869L157.72 54.8678L147.179 46.0589C145.018 44.248 142.288 43.2555 139.468 43.2553Z" fill="#FDD311"/>
<path opacity="0.08" d="M138.97 43.2553C138.97 45.1133 135.55 46.6229 131.342 46.6229C127.134 46.6229 123.714 45.1133 123.714 43.2553" fill="black"/>
<path opacity="0.46" d="M143.834 65.8915H119.166V75.0985H143.834V65.8915Z" fill="white"/>
<path opacity="0.08" d="M131.5 147.096C140.861 147.096 148.449 145.444 148.449 143.405C148.449 141.367 140.861 139.714 131.5 139.714C122.139 139.714 114.551 141.367 114.551 143.405C114.551 145.444 122.139 147.096 131.5 147.096Z" fill="black"/>
<path d="M139.468 99.6342H123.532C120.711 99.6309 117.98 100.624 115.821 102.438L105.321 111.247L114.07 121.458L119.207 117.31V143.256H143.876V117.31L149.013 121.458L157.72 111.247L147.221 102.438C145.051 100.615 142.303 99.6211 139.468 99.6342Z" fill="#24285B"/>
<path opacity="0.46" d="M138.97 99.6342C138.97 101.492 135.55 102.952 131.342 102.952C127.134 102.952 123.714 101.451 123.714 99.6342" fill="white"/>
<path opacity="0.08" d="M214.942 111.355C224.303 111.355 231.891 109.702 231.891 107.663C231.891 105.625 224.303 103.972 214.942 103.972C205.581 103.972 197.993 105.625 197.993 107.663C197.993 109.702 205.581 111.355 214.942 111.355Z" fill="black"/>
<path d="M222.91 63.8924H206.974C204.156 63.8946 201.43 64.887 199.271 66.696L188.771 75.505L197.487 85.7157L202.616 81.5684V107.514H227.284V81.5601L232.422 85.7074L241.129 75.505L230.621 66.696C228.46 64.8852 225.73 63.8926 222.91 63.8924Z" fill="#FDD311"/>
<path opacity="0.08" d="M222.42 63.8924C222.42 65.7504 219.009 67.2518 214.793 67.2518C210.576 67.2518 207.173 65.7504 207.173 63.8924" fill="black"/>
<path opacity="0.46" d="M227.276 86.5203H202.608V95.7274H227.276V86.5203Z" fill="white"/>
<path opacity="0.08" d="M48.058 111.355C57.4187 111.355 65.007 109.702 65.007 107.663C65.007 105.625 57.4187 103.972 48.058 103.972C38.6973 103.972 31.109 105.625 31.109 107.663C31.109 109.702 38.6973 111.355 48.058 111.355Z" fill="black"/>
<path d="M56.0263 63.8924H40.0899C37.2699 63.8926 34.5399 64.8852 32.379 66.696L21.871 75.505L30.5862 85.7157L35.724 81.5684V107.514H60.3922V81.5601L65.5217 85.7074L74.2286 75.505L63.7206 66.696C61.5641 64.8889 58.8407 63.8965 56.0263 63.8924Z" fill="#FDD311"/>
<path opacity="0.08" d="M55.5282 63.8924C55.5282 65.7504 52.1169 67.2518 47.9086 67.2518C43.7004 67.2518 40.2808 65.7421 40.2808 63.8924" fill="black"/>
<path opacity="0.46" d="M60.3922 86.5203H35.724V95.7274H60.3922V86.5203Z" fill="white"/>
</g>
<defs>
<clipPath id="clip0_136_1679">
<rect width="262" height="160" fill="white" transform="translate(0.5)"/>
</clipPath>
</defs>
</svg>
