<svg width="269" height="184" viewBox="0 0 269 184" fill="none" xmlns="http://www.w3.org/2000/svg">
<g clip-path="url(#clip0_136_1645)">
<path d="M115.111 11.2441C115.111 11.2441 115.297 18.0959 116.947 22.4419C117.108 22.8628 117.352 23.2476 117.662 23.574C117.973 23.9004 118.345 24.1621 118.757 24.344C119.168 24.5259 119.612 24.6245 120.062 24.634C120.512 24.6435 120.959 24.5638 121.378 24.3995C123.555 23.5381 126.259 21.7273 126.6 18.0567L127.938 11.9195C128.08 10.6576 127.827 9.38264 127.215 8.27091C126.603 7.15918 125.662 6.26559 124.521 5.71372C120.392 3.40369 114.789 7.09386 115.111 11.2441Z" fill="#F6C8BC"/>
<path d="M124.57 11.9782L137.045 30.5465L126.347 36.7033L121.564 20.7289L124.57 11.9782Z" fill="#F6C8BC"/>
<path d="M122.96 16.2264C122.96 16.2264 122.706 13.6129 124.658 13.5835C126.61 13.5542 127.02 17.3422 124.394 17.998L122.96 16.2264Z" fill="#F6C8BC"/>
<path d="M115.443 15.5411L113.862 18.3699C113.77 18.5299 113.721 18.7106 113.718 18.895C113.716 19.0794 113.76 19.2615 113.847 19.424C113.934 19.5866 114.06 19.7242 114.215 19.8241C114.37 19.924 114.547 19.9827 114.731 19.9948L117.376 20.1906L115.443 15.5411Z" fill="#F6C8BC"/>
<path opacity="0.31" d="M122.403 23.8318C123.489 22.6801 124.212 21.2332 124.482 19.6718C124.482 19.6718 125.741 23.499 124.141 29.3231L122.403 23.8318Z" fill="#CE8172"/>
<path d="M126.366 17.9588C127.32 17.9588 128.094 17.1832 128.094 16.2263C128.094 15.2695 127.32 14.4938 126.366 14.4938C125.412 14.4938 124.638 15.2695 124.638 16.2263C124.638 17.1832 125.412 17.9588 126.366 17.9588Z" fill="#F6C8BC"/>
<path d="M16.3867 102.108C25.3573 102.108 32.6293 94.8162 32.6293 85.8208C32.6293 76.8254 25.3573 69.5331 16.3867 69.5331C7.41613 69.5331 0.144043 76.8254 0.144043 85.8208C0.144043 94.8162 7.41613 102.108 16.3867 102.108Z" fill="#FDD311"/>
<path d="M116.42 12.1837C118.655 13.2996 119.201 13.0353 122.403 12.5263C122.403 12.5263 123.682 28.9804 133.765 23.6849C139.983 20.4156 133.277 16.2263 130.163 8.6991C127.049 1.17193 125.283 -1.19683 120.295 0.202889C118.356 0.862288 116.602 1.97643 115.18 3.45259C114.554 4.04615 114.079 4.78152 113.795 5.59704C113.511 6.41257 113.427 7.28446 113.548 8.13964C113.669 8.99481 113.993 9.80833 114.493 10.512C114.993 11.2156 115.653 11.7889 116.42 12.1837Z" fill="#29A96B"/>
<path d="M144.463 115.137L140.627 128.155C139.279 132.732 138.907 137.542 139.536 142.272C140.164 147.002 141.78 151.547 144.276 155.61C146.772 159.673 150.094 163.163 154.025 165.853C157.955 168.543 162.407 170.373 167.09 171.223L197.955 176.832V168.081L174.84 158.597C173.003 157.841 171.334 156.726 169.93 155.318C168.526 153.91 167.415 152.236 166.661 150.394C165.907 148.552 165.526 146.578 165.539 144.587C165.553 142.596 165.96 140.627 166.738 138.795L171.785 126.922L144.463 115.137Z" fill="#F6C8BC"/>
<path d="M188.506 27.3262L228.702 46.6287C232.529 48.4696 235.785 51.3183 238.122 54.8704L256.434 82.6103L250.011 89.0314L217.184 64.688L174.44 53.1378L188.506 27.3262Z" fill="#F6C8BC"/>
<path d="M126.347 36.7033L137.084 30.5465C137.084 30.5465 158.1 10.324 188.545 27.3262C218.99 44.3284 174.44 112.915 174.44 112.915L129.812 106.2C129.812 106.2 140.276 84.3526 111.5 69.4842L100.196 58.5214C100.196 58.5214 115.658 42.8699 126.347 36.7033Z" fill="#29A96B"/>
<path opacity="0.08" d="M184.475 65.1579C184.475 65.1579 191.259 72.6753 179.077 76.5514C166.895 80.4276 152.721 95.2861 148.173 108.96L129.851 106.2C129.851 106.2 133.043 100.327 131.003 90.9108C128.963 81.4945 163.019 62.9359 184.475 65.1579Z" fill="black"/>
<path d="M100.196 58.5213C100.196 58.5213 84.92 71.2461 91.011 85.4293C97.102 99.6125 125.819 96.2551 149.676 82.6494C173.532 69.0437 177.417 66.7337 177.417 66.7337L172.986 58.5311L123.682 73.5855L100.196 58.5213Z" fill="#F6C8BC"/>
<path d="M172.986 58.5213C172.986 58.5213 186.28 56.27 188.965 61.2621C193.923 70.463 179.077 69.7974 177.417 66.7239L172.986 58.5213Z" fill="#29A96B"/>
<path d="M184.475 25.2609L217.868 41.4311L212.362 63.396L194.363 58.5214L184.475 25.2609Z" fill="#29A96B"/>
<path d="M207.384 36.351L202.962 60.851L210.371 62.7499L215.252 40.1586L207.384 36.351Z" fill="#00914A"/>
<path d="M175.67 111.564L129.441 103.479C115.847 101.098 101.895 101.787 88.6001 105.495L48.1106 116.781V127.656L100.636 123.613C106.243 123.182 111.881 123.379 117.444 124.201L154.537 129.682C156.931 130.035 159.371 129.908 161.716 129.311C164.061 128.713 166.265 127.656 168.2 126.2C170.136 124.744 171.765 122.918 172.993 120.828C174.222 118.738 175.025 116.424 175.358 114.021L175.67 111.564Z" fill="#F6C8BC"/>
<path d="M118.704 99.5832L117.376 126.011C117.376 126.011 165.997 137.757 174.479 132.413C182.962 127.069 175.67 111.603 175.67 111.603L118.704 99.5832Z" fill="#29A96B"/>
<path d="M48.1106 116.781C48.1106 116.781 32.3072 109.861 26.2162 112.915C20.1252 115.969 41.1704 125.639 41.1704 125.639C41.1704 125.639 42.0489 133.744 48.1106 127.597V116.781Z" fill="#29A96B"/>
<path d="M195.485 176.284C195.485 176.284 206.408 185.162 211.845 184.115C217.282 183.067 202.875 170.832 202.875 170.832C202.875 170.832 203.929 164.274 197.838 167.768L195.485 176.284Z" fill="#29A96B"/>
<path d="M48.1106 116.781L88.6001 105.495L89.5762 124.465L48.1106 127.656V116.781Z" fill="#5F84D9"/>
<path opacity="0.46" d="M48.1106 116.781L88.6001 105.495L89.5762 124.465L48.1106 127.656V116.781Z" fill="#0DEE80"/>
<path d="M115.112 11.2442L115.248 13.5836C115.248 13.5836 116.693 15.4923 122.579 13.9359L122.403 12.5264C122.403 12.5264 118.089 13.0158 115.112 11.2442Z" fill="#29A96B"/>
<path d="M137.045 127.656C137.045 127.656 134.439 151.52 146.24 158.459L166.739 150.629C166.739 150.629 164.259 144.971 168.886 133.656C173.513 122.341 137.045 127.656 137.045 127.656Z" fill="#29A96B"/>
<path d="M197.838 167.739L174.84 158.597L169.315 171.625L195.485 176.284L197.838 167.739Z" fill="#5F84D9"/>
<path opacity="0.46" d="M197.838 167.739L174.84 158.597L169.315 171.625L195.485 176.284L197.838 167.739Z" fill="#0DEE80"/>
<path opacity="0.08" d="M123.682 73.5855L113.716 75.6704C113.716 75.6704 109.674 64.776 117.376 58.4822C125.078 52.1883 137.318 58.3647 142.414 67.8496L123.682 73.5855Z" fill="black"/>
<path opacity="0.46" d="M163.4 52.1786C166.672 52.1786 169.325 49.5185 169.325 46.2371C169.325 42.9557 166.672 40.2956 163.4 40.2956C160.128 40.2956 157.475 42.9557 157.475 46.2371C157.475 49.5185 160.128 52.1786 163.4 52.1786Z" fill="white"/>
<path d="M249.972 89.0314C249.972 89.0314 256.336 97.371 266.029 93.2012C275.722 89.0314 256.434 82.6103 256.434 82.6103L249.972 89.0314Z" fill="#29A96B"/>
</g>
<defs>
<clipPath id="clip0_136_1645">
<rect width="268" height="184" fill="white" transform="translate(0.5)"/>
</clipPath>
</defs>
</svg>
