<svg width="187" height="198" viewBox="0 0 187 198" fill="none" xmlns="http://www.w3.org/2000/svg">
<g clip-path="url(#clip0_136_1709)">
<path d="M141.067 47.7052L150.705 59.5468C151.245 60.2098 151.935 60.7331 152.718 61.0728C153.501 61.4124 154.353 61.5585 155.204 61.4987C156.054 61.439 156.878 61.1751 157.606 60.7293C158.334 60.2835 158.945 59.6688 159.388 58.9368L163.802 52.1051L167.43 54.7809C167.43 54.7809 163.891 64.5405 157.646 69.8188C151.402 75.0971 135.657 58.2537 135.657 58.2537L141.067 47.7052Z" fill="#5F84D9"/>
<path opacity="0.09" d="M141.067 47.7052L150.705 59.5468C151.245 60.2098 151.935 60.7331 152.718 61.0728C153.501 61.4124 154.353 61.5585 155.204 61.4987C156.054 61.439 156.878 61.1751 157.606 60.7293C158.334 60.2835 158.945 59.6688 159.388 58.9368L163.802 52.1051L167.43 54.7809C167.43 54.7809 163.891 64.5405 157.646 69.8188C151.402 75.0971 135.657 58.2537 135.657 58.2537L141.067 47.7052Z" fill="#29A96B"/>
<path d="M142.728 35.766C142.58 37.4356 142.207 39.0773 141.618 40.6458C141.452 41.0078 141.15 41.2891 140.778 41.4279C140.406 41.5666 139.995 41.5515 139.634 41.3859C139.041 41.1535 138.528 40.7544 138.156 40.2365C137.784 39.7186 137.569 39.1039 137.536 38.4661L137.115 35.7416C137.089 35.1854 137.236 34.6349 137.535 34.1659C137.833 33.6968 138.27 33.3324 138.783 33.1227C140.646 32.1956 142.987 33.936 142.728 35.766Z" fill="#F7C8BC"/>
<path d="M137.196 36.197L133.98 45.4361L139.18 46.8512L139.431 39.5641L137.196 36.197Z" fill="#F7C8BC"/>
<path d="M142.46 37.6366L143.076 38.9135C143.112 38.9855 143.129 39.0655 143.125 39.146C143.122 39.2265 143.098 39.3047 143.055 39.3732C143.013 39.4417 142.954 39.4982 142.884 39.5373C142.814 39.5764 142.735 39.5968 142.655 39.5966H141.496L142.46 37.6366Z" fill="#F7C8BC"/>
<path opacity="0.31" d="M139.439 41.1582C138.812 40.8741 138.282 40.41 137.917 39.8244C137.868 41.2424 138.357 42.6262 139.285 43.6957L139.439 41.1582Z" fill="#CE8172"/>
<path d="M136.175 39.1249L137.965 39.2876C137.965 39.2876 140.184 37.661 140.047 35.278C140.047 35.278 141.845 36.807 143.448 35.5871C145.052 34.3671 144.21 31.7809 142.274 30.9594C140.338 30.138 134.636 29.2271 136.175 39.1249Z" fill="#FDD311"/>
<path d="M133.98 45.4443L139.18 46.8513C139.18 46.8513 148.899 51.7311 149.069 61.4907C149.239 71.2503 136.378 84.7998 136.378 84.7998L119.621 77.3825C119.621 77.3825 115.215 45.119 133.98 45.4443Z" fill="#29A96B"/>
<path d="M164.757 52.8371C164.757 52.8371 165.567 49.3562 168.24 49.5026C170.913 49.649 167.082 54.5532 167.082 54.5532L164.757 52.8371Z" fill="#F7C8BC"/>
<path d="M133.697 50.934L132.328 11.4401L127.979 10.7244C127.979 10.7244 121.054 37.9456 122.561 52.0482C124.067 66.1508 133.697 56.4156 133.697 50.934Z" fill="#5F84D9"/>
<path opacity="0.46" d="M133.697 50.934L132.328 11.4401L127.979 10.7244C127.979 10.7244 121.054 37.9456 122.561 52.0482C124.067 66.1508 133.697 56.4156 133.697 50.934Z" fill="#29A96B"/>
<path d="M131.648 11.3832C131.648 11.3832 133.535 8.50415 131.907 7.21914C130.279 5.93413 129.25 5.59254 128.724 7.12968C128.402 8.31277 128.311 9.54735 128.457 10.7651L131.648 11.3832Z" fill="#F7C8BC"/>
<path d="M49.5628 35.2942C49.3804 36.8304 49.4049 38.3842 49.6357 39.9138C49.674 40.0946 49.7477 40.2659 49.8527 40.4178C49.9577 40.5696 50.0918 40.6989 50.2472 40.7981C50.4025 40.8973 50.576 40.9644 50.7575 40.9955C50.939 41.0266 51.1248 41.0211 51.3041 40.9792C51.8888 40.885 52.4339 40.6229 52.8736 40.2246C53.3134 39.8263 53.629 39.3088 53.7824 38.7345L54.6896 36.2946C54.8216 35.7935 54.7951 35.2635 54.6137 34.7782C54.4323 34.2929 54.105 33.8763 53.6772 33.5863C52.1545 32.4477 49.6762 33.5944 49.5628 35.2942Z" fill="#F7C8BC"/>
<path d="M54.5274 36.7663L55.6613 45.8184L50.6479 46.0949L51.8385 39.3933L54.5274 36.7663Z" fill="#F7C8BC"/>
<path d="M52.4298 37.7748C52.4298 37.7748 52.4865 36.7012 53.2802 36.807C54.0739 36.9127 54.0091 38.4336 52.9158 38.5718L52.4298 37.7748Z" fill="#F7C8BC"/>
<path d="M49.4655 37.0428L48.6556 38.092C48.6103 38.1513 48.5806 38.221 48.569 38.2947C48.5575 38.3685 48.5645 38.444 48.5894 38.5144C48.6144 38.5847 48.6565 38.6477 48.7119 38.6975C48.7673 38.7473 48.8343 38.7824 48.9067 38.7996L49.9596 39.0354L49.4655 37.0428Z" fill="#F7C8BC"/>
<path d="M50.648 46.1355C50.648 46.1355 42.9861 47.2742 40.7103 37.5146C38.4344 27.755 48.7041 20.4353 48.7041 20.4353C48.7041 20.4353 53.8795 19.0608 51.4255 16.2956C48.9714 13.5304 45.756 18.402 45.756 18.402C45.756 18.402 30.2056 25.5997 33.3319 39.4096C36.4582 53.2194 45.0109 57.6274 45.0109 57.6274L50.648 46.1355Z" fill="#F7C8BC"/>
<path opacity="0.31" d="M51.5146 40.8491C52.1324 40.7084 52.6956 40.3889 53.1344 39.9301C52.8976 41.2301 52.1801 42.3922 51.1259 43.1833L51.5146 40.8491Z" fill="#CE8172"/>
<path d="M44.1767 50.0963C44.1767 50.0963 33.9313 60.8969 41.5526 67.4033C49.1739 73.9097 52.8023 77.594 52.8023 77.594L66.9759 73.1046C66.9759 73.1046 66.3523 61.5232 68.5957 54.8867C70.8392 48.2501 67.0974 44.4358 63.2827 44.2731C59.468 44.1104 53.7418 42.1179 44.1767 50.0963Z" fill="#29A96B"/>
<path opacity="0.09" d="M54.5032 44.3951C54.5032 44.3951 49.0119 51.8043 53.7338 57.6601C58.4556 63.5158 60.3427 75.2111 60.3427 75.2111L66.9759 73.1046C66.9759 73.1046 66.66 62.2227 67.8911 57.6519C68.5002 55.7067 68.9684 53.7197 69.2923 51.7067C69.4867 49.7141 61.4118 42.98 61.4118 42.98L54.5032 44.3951Z" fill="black"/>
<path d="M64.7163 56.5296C59.6219 60.0186 54.074 52.764 58.6014 48.5592C59.8615 47.3668 61.2158 46.2788 62.651 45.306C67.7454 41.939 73.2528 27.7306 66.7006 20.3215C66.7006 20.3215 62.9507 15.8402 65.8907 14.3763C68.8307 12.9123 69.3652 19.557 69.3652 19.557C69.3652 19.557 80.1614 31.0814 74.816 41.9878C71.9164 47.8842 68.5877 53.8782 64.7163 56.5296Z" fill="#F7C8BC"/>
<path d="M52.0815 36.0587C52.0815 36.0587 52.1382 45.9322 58.4799 45.737C64.8215 45.5418 66.2956 42.435 67.2108 39.8894C68.126 37.3438 56.9734 42.5895 56.4956 35.5626C56.0177 28.5357 50.243 30.0729 48.7609 32.4314C47.2787 34.79 52.0815 36.0587 52.0815 36.0587Z" fill="#1C4030"/>
<path d="M84.3892 6.14559C84.697 6.40585 85.6851 5.17776 85.8147 4.90938C86.3897 3.96777 86.6295 2.85814 86.495 1.76191C86.3249 1.095 85.6446 0.0783769 84.8752 0.053978C84.441 0.1044 84.0296 0.275868 83.6875 0.548968C83.3454 0.822068 83.0863 1.18589 82.9395 1.59925C82.6109 2.20866 82.3162 2.83586 82.0567 3.47797C81.8542 4.06354 82.162 4.29127 82.5993 4.65725C83.1905 5.1615 83.7899 5.64948 84.3892 6.14559Z" fill="#F7C8BC"/>
<path d="M83.3525 38.7508C83.3525 38.7508 81.9918 19.8822 85.6688 6.38144L82.0566 3.47797C82.0566 3.47797 71.6006 27.7712 75.5773 52.4142L83.3525 38.7508Z" fill="#5F84D9"/>
<path d="M112.258 12.0177C111.87 12.2617 111.238 10.7815 111.181 10.57C110.865 9.41513 110.104 8.13012 110.849 6.93457C111.072 6.62128 111.368 6.36725 111.711 6.19438C112.054 6.02152 112.434 5.93502 112.817 5.94235C113.627 6.10501 114.113 6.99963 114.34 7.72347C114.584 8.3721 114.79 9.03476 114.955 9.70792C115.069 10.326 114.737 10.5212 114.251 10.7977L112.258 12.0177Z" fill="#F7C8BC"/>
<path d="M108.63 44.4277C108.63 44.4277 112.68 25.9576 110.954 12.0665L114.955 9.70792C114.955 9.70792 121.824 35.2537 114.397 59.0752L108.63 44.4277Z" fill="#5F84D9"/>
<path opacity="0.46" d="M83.3525 38.7508C83.3525 38.7508 81.9918 19.8822 85.6688 6.38144L82.0566 3.47797C82.0566 3.47797 71.6006 27.7712 75.5773 52.4142L83.3525 38.7508Z" fill="#29A96B"/>
<path opacity="0.46" d="M108.63 44.4277C108.63 44.4277 112.68 25.9576 110.954 12.0665L114.955 9.70792C114.955 9.70792 121.824 35.2537 114.397 59.0752L108.63 44.4277Z" fill="#29A96B"/>
<path d="M114.964 54.1629C113.433 70.4289 104.775 84.0191 104.775 84.0191L83.9275 82.8317C83.9275 82.8317 61.2498 38.0514 90.4068 37.4089H91.6946H96.1896C97.5005 37.471 98.8052 37.6286 100.093 37.8806C100.741 38.0026 101.438 38.1571 102.175 38.3442C103.223 38.6132 104.254 38.9473 105.261 39.3446C110.452 41.3697 115.773 45.5582 114.964 54.1629Z" fill="#29A96B"/>
<path d="M105.909 89.094L104.767 84.019L83.9194 82.8316L83.3524 89.094H105.909Z" fill="#1C4030"/>
<path opacity="0.08" d="M105.277 39.3282C104.791 42.4757 103.576 45.7208 100.701 47.0383C94.3836 49.9255 93.5818 43.655 93.5818 43.655C92.7719 42.3863 93.5818 39.9789 94.8695 37.6529L99.3646 37.7911C99.3646 37.7911 99.6238 37.7911 100.085 37.8643C100.733 37.9863 101.43 38.1408 102.167 38.3279C103.223 38.5959 104.262 38.93 105.277 39.3282Z" fill="black"/>
<path d="M92.5288 36.563C92.7651 37.4459 92.949 38.3421 93.0795 39.2469C93.2496 40.4831 93.8409 42.2967 95.8333 42.4513C98.9109 42.6952 99.2106 37.8236 99.2106 37.8236C99.2106 37.8236 100.644 33.1308 97.3154 32.8543C94.3106 32.6103 91.5002 32.5046 92.5288 36.563Z" fill="#F7C8BC"/>
<path d="M99.0406 38.0026C99.0406 38.0026 99.0406 36.5305 100.337 36.4573C101.632 36.3841 101.389 39.19 99.0406 38.0026Z" fill="#F7C8BC"/>
<path d="M93.3955 37.8073C93.3955 37.8073 93.6952 36.3678 92.4641 36.0181C91.233 35.6683 90.8524 38.4254 93.3955 37.8073Z" fill="#F7C8BC"/>
<path d="M92.5288 36.5631C92.5288 36.5631 87.564 36.376 89.3782 32.4966C91.1925 28.6171 91.9538 31.3091 92.6908 28.4301C93.4278 25.551 94.3106 24.8841 95.9305 25.917C97.5503 26.9498 96.3597 29.6093 98.5789 28.6659C100.798 27.7225 102.288 26.9011 102.92 28.7635C103.552 30.626 103.22 31.5775 101.81 32.3827C100.401 33.1879 102.985 35.5139 99.3807 36.9453C95.7766 38.3767 93.4359 34.5054 93.4359 34.5054L92.5288 36.5631Z" fill="#1C4030"/>
<path d="M152.455 70.9249V118.226C152.462 123.975 151.34 129.668 149.153 134.98C146.966 140.292 143.757 145.118 139.709 149.183C135.661 153.248 130.855 156.47 125.565 158.666C120.275 160.863 114.605 161.989 108.881 161.982H79.1085C73.3857 161.984 67.7186 160.854 62.4311 158.656C57.1435 156.457 52.3392 153.234 48.2926 149.171C44.246 145.107 41.0364 140.283 38.8474 134.973C36.6584 129.664 35.5328 123.973 35.5349 118.226V70.9249H152.455Z" fill="#FDD311"/>
<path d="M104.985 150.36H82.9961V191.887H104.985V150.36Z" fill="#FDD311"/>
<path d="M129.68 184.201H58.3018V197.946H129.68V184.201Z" fill="#99820D"/>
<path d="M36.1262 125.424H29.1528C23.839 125.318 18.7786 123.123 15.0581 119.312C11.3377 115.5 9.25371 110.376 9.25371 105.039C9.25371 99.7017 11.3377 94.5774 15.0581 90.766C18.7786 86.9546 23.839 84.76 29.1528 84.6535H35.535V76.5205H29.1528C21.7038 76.6468 14.6024 79.7069 9.37906 85.0414C4.15572 90.3759 1.22864 97.5576 1.22864 105.039C1.22864 112.52 4.15572 119.702 9.37906 125.036C14.6024 130.371 21.7038 133.431 29.1528 133.557H38.2806C37.3035 130.922 36.582 128.198 36.1262 125.424Z" fill="#FDD311"/>
<path d="M158.804 76.5205H152.422V84.6535H158.804C164.118 84.76 169.179 86.9546 172.899 90.766C176.62 94.5774 178.704 99.7017 178.704 105.039C178.704 110.376 176.62 115.5 172.899 119.312C169.179 123.123 164.118 125.318 158.804 125.424H151.831C151.375 128.198 150.654 130.922 149.677 133.557H158.804C166.253 133.431 173.355 130.371 178.578 125.036C183.802 119.702 186.729 112.52 186.729 105.039C186.729 97.5576 183.802 90.3759 178.578 85.0414C173.355 79.7069 166.253 76.6468 158.804 76.5205Z" fill="#FDD311"/>
<path opacity="0.3" d="M45.8613 125.473C46.242 129.271 46.6712 133.118 48.0562 136.688C49.6108 140.644 52.1895 144.111 55.5258 146.731C58.862 149.35 62.8346 151.027 67.0326 151.588C69.2032 151.848 72.0379 151.32 72.459 149.148C72.7587 147.635 71.6491 146.253 70.6367 145.082C61.6628 134.094 61.0797 118.535 62.4403 104.417C62.8696 99.9597 63.4446 95.4702 62.9587 91.0215C62.4727 86.5727 60.7719 82.0752 57.3784 79.1799C55.0215 77.1629 50.7289 75.3248 47.9914 77.6102C46.8782 78.6472 46.0663 79.9684 45.6427 81.4327C44.4035 85.1007 44.4278 88.9638 44.6546 92.8189C44.8327 95.7956 44.1929 98.577 44.282 101.578C44.5358 109.538 45.0622 117.503 45.8613 125.473Z" fill="white"/>
<path opacity="0.43" d="M95.315 91.3956L101.454 103.88C101.557 104.094 101.711 104.28 101.901 104.422C102.092 104.563 102.313 104.656 102.548 104.693L116.268 106.694C116.537 106.733 116.79 106.847 116.998 107.023C117.206 107.199 117.361 107.43 117.446 107.689C117.53 107.949 117.54 108.227 117.475 108.493C117.41 108.758 117.272 109 117.077 109.191L107.148 118.901C106.979 119.069 106.853 119.274 106.78 119.501C106.706 119.727 106.688 119.968 106.727 120.203L109.076 133.915C109.122 134.184 109.092 134.461 108.99 134.714C108.888 134.967 108.717 135.187 108.497 135.347C108.277 135.508 108.017 135.604 107.745 135.624C107.474 135.644 107.203 135.587 106.962 135.46L94.6914 128.954C94.4821 128.841 94.2484 128.782 94.011 128.782C93.7737 128.782 93.54 128.841 93.3307 128.954L81.0605 135.46C80.8195 135.587 80.5481 135.644 80.2768 135.624C80.0055 135.604 79.7451 135.508 79.5252 135.347C79.3053 135.187 79.1345 134.967 79.0323 134.714C78.93 134.461 78.9003 134.184 78.9466 133.915L81.2953 120.203C81.3339 119.968 81.3158 119.727 81.2425 119.501C81.1692 119.274 81.0429 119.069 80.8742 118.901L70.9446 109.191C70.7498 109 70.6121 108.758 70.547 108.493C70.482 108.227 70.4922 107.949 70.5764 107.689C70.6607 107.43 70.8157 107.199 71.0239 107.023C71.2321 106.847 71.4852 106.733 71.7545 106.694L85.4745 104.693C85.7087 104.656 85.9304 104.563 86.1209 104.422C86.3113 104.28 86.4647 104.094 86.5679 103.88L92.7071 91.3956C92.826 91.1499 93.0113 90.9428 93.2419 90.7979C93.4725 90.6529 93.739 90.5761 94.011 90.5761C94.2831 90.5761 94.5496 90.6529 94.7802 90.7979C95.0108 90.9428 95.1961 91.1499 95.315 91.3956Z" fill="white"/>
</g>
<defs>
<clipPath id="clip0_136_1709">
<rect width="186" height="198" fill="white" transform="translate(0.5)"/>
</clipPath>
</defs>
</svg>
